<svg width="136" height="136" viewBox="0 0 136 136" fill="none" xmlns="http://www.w3.org/2000/svg">
<path d="M136 68C136 105.555 105.555 136 68 136C30.4446 136 0 105.555 0 68C0 30.4446 30.4446 0 68 0C105.555 0 136 30.4446 136 68Z" fill="white"/>
<path d="M25.444 80.324C25.06 80.324 24.736 80.036 24.472 79.46L14.716 58.292C14.644 58.124 14.548 58.052 14.428 58.076C14.332 58.1 14.284 58.208 14.284 58.4V76.904C14.284 77.576 14.392 78.092 14.608 78.452C14.848 78.788 15.268 79.004 15.868 79.1L16.336 79.172C16.648 79.196 16.804 79.34 16.804 79.604C16.804 79.868 16.624 80 16.264 80H11.116C10.756 80 10.576 79.868 10.576 79.604C10.576 79.34 10.732 79.196 11.044 79.172L11.512 79.1C12.136 79.004 12.568 78.788 12.808 78.452C13.048 78.092 13.168 77.576 13.168 76.904V56.456C13.168 55.952 13.084 55.616 12.916 55.448C12.772 55.28 12.424 55.148 11.872 55.052L11.044 54.908C10.732 54.836 10.576 54.692 10.576 54.476C10.576 54.212 10.756 54.08 11.116 54.08H14.968C15.568 54.08 15.988 54.344 16.228 54.872L24.724 73.556C24.796 73.7 24.88 73.76 24.976 73.736C25.096 73.712 25.156 73.628 25.156 73.484V57.176C25.156 56.408 25.024 55.88 24.76 55.592C24.496 55.28 24.16 55.088 23.752 55.016L23.104 54.908C22.792 54.836 22.636 54.692 22.636 54.476C22.636 54.212 22.816 54.08 23.176 54.08H28.324C28.684 54.08 28.864 54.212 28.864 54.476C28.864 54.74 28.708 54.884 28.396 54.908L27.928 54.98C27.304 55.076 26.872 55.28 26.632 55.592C26.392 55.88 26.272 56.408 26.272 57.176V79.172C26.272 79.604 26.188 79.904 26.02 80.072C25.876 80.24 25.684 80.324 25.444 80.324ZM36.1166 80.324C34.8926 80.324 33.7886 79.916 32.8046 79.1C31.8446 78.26 31.0766 77.12 30.5006 75.68C29.9246 74.24 29.6366 72.632 29.6366 70.856C29.6366 69.08 29.9246 67.484 30.5006 66.068C31.0766 64.652 31.8566 63.524 32.8406 62.684C33.8246 61.844 34.9166 61.424 36.1166 61.424C37.3406 61.424 38.4326 61.844 39.3926 62.684C40.3766 63.524 41.1566 64.652 41.7326 66.068C42.3086 67.484 42.5966 69.08 42.5966 70.856C42.5966 72.632 42.3086 74.24 41.7326 75.68C41.1806 77.12 40.4126 78.26 39.4286 79.1C38.4446 79.916 37.3406 80.324 36.1166 80.324ZM36.1166 79.424C38.6126 79.424 39.8606 76.568 39.8606 70.856C39.8606 65.168 38.6126 62.324 36.1166 62.324C33.6206 62.324 32.3726 65.168 32.3726 70.856C32.3726 76.568 33.6206 79.424 36.1166 79.424ZM48.7959 80.324C47.9559 80.324 47.2599 80.036 46.7079 79.46C46.1799 78.86 45.9159 77.888 45.9159 76.544V63.08C45.9159 62.792 45.7719 62.648 45.4839 62.648H44.4399C44.0559 62.648 43.8639 62.504 43.8639 62.216C43.8639 62.024 43.9719 61.856 44.1879 61.712C44.9799 61.16 45.6159 60.572 46.0959 59.948C46.5759 59.3 46.9959 58.424 47.3559 57.32C47.5239 56.816 47.7279 56.564 47.9679 56.564C48.2319 56.564 48.3639 56.756 48.3639 57.14V61.136C48.3639 61.472 48.5319 61.64 48.8679 61.64H51.2079C51.5919 61.64 51.7839 61.808 51.7839 62.144C51.7839 62.48 51.5919 62.648 51.2079 62.648H48.8679C48.5319 62.648 48.3639 62.816 48.3639 63.152V76.58C48.3639 77.108 48.4479 77.528 48.6159 77.84C48.7839 78.128 49.0959 78.272 49.5519 78.272C50.0559 78.272 50.4639 78.02 50.7759 77.516C51.1119 77.012 51.3279 76.196 51.4239 75.068C51.4719 74.732 51.6279 74.564 51.8919 74.564C52.1799 74.564 52.3239 74.744 52.3239 75.104C52.2519 76.952 51.8679 78.284 51.1719 79.1C50.4999 79.916 49.7079 80.324 48.7959 80.324ZM52.7123 80C52.3523 80 52.1723 79.88 52.1723 79.64C52.1723 79.4 52.3403 79.244 52.6763 79.172L53.2163 79.064C53.6963 78.968 54.0563 78.74 54.2963 78.38C54.5363 77.996 54.7403 77.468 54.9083 76.796L60.4883 54.296C60.5363 54.056 60.6083 53.9 60.7043 53.828C60.8243 53.756 60.9323 53.72 61.0283 53.72C61.1483 53.72 61.2563 53.756 61.3523 53.828C61.4723 53.9 61.5563 54.056 61.6043 54.296L67.2923 77.12C67.4603 77.792 67.6523 78.26 67.8683 78.524C68.0843 78.788 68.4203 78.968 68.8763 79.064L69.4163 79.172C69.7523 79.244 69.9203 79.4 69.9203 79.64C69.9203 79.88 69.7403 80 69.3803 80H63.2243C62.8883 80 62.7203 79.868 62.7203 79.604C62.7203 79.34 62.9243 79.196 63.3323 79.172L64.0163 79.1C64.4243 79.052 64.6763 78.92 64.7723 78.704C64.8923 78.488 64.8923 78.116 64.7723 77.588L63.4043 72.008C63.2603 71.384 62.8643 71.072 62.2163 71.072H58.4363C57.8123 71.072 57.4163 71.384 57.2483 72.008L56.0243 76.832C55.6643 78.2 56.0243 78.956 57.1043 79.1L57.6443 79.172C58.0523 79.244 58.2563 79.388 58.2563 79.604C58.2563 79.868 58.0883 80 57.7523 80H52.7123ZM58.3283 69.992H62.2883C62.6723 69.992 62.8283 69.788 62.7563 69.38L60.4523 59.732H60.2723L57.8603 69.38C57.7883 69.788 57.9443 69.992 58.3283 69.992ZM70.3534 80C69.9934 80 69.8134 79.868 69.8134 79.604C69.8134 79.388 69.9694 79.244 70.2814 79.172L70.7134 79.1C71.2174 79.004 71.5414 78.86 71.6854 78.668C71.8534 78.452 71.9374 78.092 71.9374 77.588V65.492C71.9374 65.06 71.8654 64.772 71.7214 64.628C71.6014 64.46 71.3734 64.352 71.0374 64.304L70.2814 64.196C69.9694 64.172 69.8134 64.04 69.8134 63.8C69.8134 63.608 70.0054 63.476 70.3894 63.404C71.1334 63.284 71.6974 63.092 72.0814 62.828C72.4894 62.564 72.9094 62.24 73.3414 61.856C73.5574 61.64 73.7374 61.532 73.8814 61.532C74.0974 61.532 74.2054 61.676 74.2054 61.964V63.584C74.2054 63.8 74.2774 63.944 74.4214 64.016C74.5894 64.064 74.7694 63.992 74.9614 63.8C75.9214 62.888 76.7614 62.264 77.4814 61.928C78.2254 61.592 79.0054 61.424 79.8214 61.424C80.9014 61.424 81.7654 61.808 82.4134 62.576C83.0614 63.32 83.3854 64.424 83.3854 65.888V77.588C83.3854 78.092 83.4574 78.452 83.6014 78.668C83.7694 78.86 84.1054 78.992 84.6094 79.064L85.4014 79.172C85.6654 79.22 85.7974 79.364 85.7974 79.604C85.7974 79.868 85.6534 80 85.3654 80H79.3174C78.9814 80 78.8134 79.868 78.8134 79.604C78.8134 79.364 78.9454 79.22 79.2094 79.172L79.7134 79.1C80.2174 79.028 80.5414 78.884 80.6854 78.668C80.8534 78.452 80.9374 78.092 80.9374 77.588V66.284C80.9374 65.108 80.7214 64.28 80.2894 63.8C79.8574 63.32 79.2454 63.08 78.4534 63.08C77.6854 63.08 76.9894 63.308 76.3654 63.764C75.7654 64.196 75.2854 64.784 74.9254 65.528C74.5654 66.248 74.3854 67.052 74.3854 67.94V77.588C74.3854 78.092 74.4574 78.452 74.6014 78.668C74.7694 78.884 75.1054 79.016 75.6094 79.064L76.5814 79.172C76.8454 79.22 76.9774 79.352 76.9774 79.568C76.9774 79.856 76.7974 80 76.4374 80H70.3534ZM88.82 87.38C88.172 87.38 87.656 87.152 87.272 86.696C86.888 86.264 86.696 85.76 86.696 85.184C86.696 84.728 86.828 84.344 87.092 84.032C87.356 83.72 87.716 83.564 88.172 83.564C88.556 83.564 88.832 83.648 89 83.816C89.168 83.984 89.288 84.176 89.36 84.392C89.432 84.608 89.504 84.8 89.576 84.968C89.648 85.136 89.792 85.22 90.008 85.22C90.272 85.22 90.512 85.028 90.728 84.644C90.944 84.284 91.244 83.504 91.628 82.304C91.868 81.584 92.012 80.96 92.06 80.432C92.132 79.904 92.12 79.34 92.024 78.74C91.952 78.14 91.772 77.408 91.484 76.544L87.56 64.052C87.392 63.476 87.224 63.104 87.056 62.936C86.912 62.768 86.672 62.648 86.336 62.576L85.796 62.468C85.484 62.396 85.328 62.24 85.328 62C85.328 61.76 85.496 61.64 85.832 61.64H91.772C92.108 61.64 92.276 61.76 92.276 62C92.276 62.264 92.12 62.42 91.808 62.468L91.232 62.54C90.656 62.612 90.284 62.756 90.116 62.972C89.972 63.164 89.984 63.524 90.152 64.052L93.32 74.6C93.392 74.84 93.5 74.96 93.644 74.96C93.812 74.96 93.932 74.84 94.004 74.6L97.064 64.7C97.256 64.052 97.304 63.572 97.208 63.26C97.136 62.924 96.8 62.708 96.2 62.612L95.444 62.468C95.132 62.396 94.976 62.24 94.976 62C94.976 61.76 95.144 61.64 95.48 61.64H100.052C100.388 61.64 100.556 61.772 100.556 62.036C100.556 62.276 100.412 62.444 100.124 62.54L99.8 62.648C99.44 62.768 99.14 62.984 98.9 63.296C98.66 63.608 98.408 64.148 98.144 64.916L92.78 81.656C92.252 83.336 91.772 84.584 91.34 85.4C90.932 86.216 90.536 86.744 90.152 86.984C89.768 87.248 89.324 87.38 88.82 87.38ZM100.173 80C99.8132 80 99.6332 79.88 99.6332 79.64C99.6332 79.4 99.8012 79.244 100.137 79.172L100.677 79.064C101.157 78.968 101.517 78.74 101.757 78.38C101.997 77.996 102.201 77.468 102.369 76.796L107.949 54.296C107.997 54.056 108.069 53.9 108.165 53.828C108.285 53.756 108.393 53.72 108.489 53.72C108.609 53.72 108.717 53.756 108.813 53.828C108.933 53.9 109.017 54.056 109.065 54.296L114.753 77.12C114.921 77.792 115.113 78.26 115.329 78.524C115.545 78.788 115.881 78.968 116.337 79.064L116.877 79.172C117.213 79.244 117.381 79.4 117.381 79.64C117.381 79.88 117.201 80 116.841 80H110.685C110.349 80 110.181 79.868 110.181 79.604C110.181 79.34 110.385 79.196 110.793 79.172L111.477 79.1C111.885 79.052 112.137 78.92 112.233 78.704C112.353 78.488 112.353 78.116 112.233 77.588L110.865 72.008C110.721 71.384 110.325 71.072 109.677 71.072H105.897C105.273 71.072 104.877 71.384 104.709 72.008L103.485 76.832C103.125 78.2 103.485 78.956 104.565 79.1L105.105 79.172C105.513 79.244 105.717 79.388 105.717 79.604C105.717 79.868 105.549 80 105.213 80H100.173ZM105.789 69.992H109.749C110.133 69.992 110.289 69.788 110.217 69.38L107.913 59.732H107.733L105.321 69.38C105.249 69.788 105.405 69.992 105.789 69.992ZM117.607 80C117.247 80 117.067 79.868 117.067 79.604C117.067 79.388 117.223 79.244 117.535 79.172L118.363 79.028C118.867 78.932 119.191 78.8 119.335 78.632C119.503 78.464 119.587 78.128 119.587 77.624V56.456C119.587 55.952 119.503 55.616 119.335 55.448C119.191 55.28 118.867 55.148 118.363 55.052L117.535 54.908C117.223 54.836 117.067 54.692 117.067 54.476C117.067 54.212 117.247 54.08 117.607 54.08H124.123C124.483 54.08 124.663 54.212 124.663 54.476C124.663 54.692 124.507 54.836 124.195 54.908L123.367 55.052C122.863 55.148 122.527 55.28 122.359 55.448C122.215 55.616 122.143 55.952 122.143 56.456V77.624C122.143 78.128 122.215 78.464 122.359 78.632C122.527 78.8 122.863 78.932 123.367 79.028L124.195 79.172C124.507 79.244 124.663 79.388 124.663 79.604C124.663 79.868 124.483 80 124.123 80H117.607Z" fill="black"/>
</svg>
