<svg viewBox="0 0 40 40" xmlns="http://www.w3.org/2000/svg" fill="none">
  <defs>
    <linearGradient id="logoGradient" x1="0%" y1="0%" x2="100%" y2="100%">
      <stop offset="0%" stop-color="#3B82F6" />
      <stop offset="50%" stop-color="#6366F1" />
      <stop offset="100%" stop-color="#8B5CF6" />
    </linearGradient>
    <linearGradient id="innerGradient" x1="0%" y1="0%" x2="100%" y2="100%">
      <stop offset="0%" stop-color="#FFFFFF" />
      <stop offset="100%" stop-color="#E0E7FF" />
    </linearGradient>
  </defs>

  <!-- Main circle background -->
  <circle cx="20" cy="20" r="18" fill="url(#logoGradient)" />

  <!-- Inner geometric pattern -->
  <g transform="translate(8, 8)">
    <!-- Neural network nodes -->
    <circle cx="4" cy="6" r="1.5" fill="url(#innerGradient)" />
    <circle cx="12" cy="4" r="1.5" fill="url(#innerGradient)" />
    <circle cx="20" cy="6" r="1.5" fill="url(#innerGradient)" />
    <circle cx="4" cy="18" r="1.5" fill="url(#innerGradient)" />
    <circle cx="12" cy="20" r="1.5" fill="url(#innerGradient)" />
    <circle cx="20" cy="18" r="1.5" fill="url(#innerGradient)" />

    <!-- "N" shape lines -->
    <path d="M4 6 L4 18 M4 6 L20 18 M20 6 L20 18" 
          stroke="url(#innerGradient)" 
          stroke-width="2.5" 
          stroke-linecap="round" />

    <!-- Neural connections -->
    <path d="M4 6 L12 4 M12 4 L20 6 M4 18 L12 20 M12 20 L20 18 M4 6 L12 20 M20 6 L12 20" 
          stroke="url(#innerGradient)" 
          stroke-width="1" 
          stroke-linecap="round" 
          opacity="0.6" />
  </g>
</svg>
