<svg width="100" height="100" viewBox="0 0 100 100" fill="none" xmlns="http://www.w3.org/2000/svg">
<path d="M100 50C100 77.6142 77.6142 100 50 100C22.3858 100 0 77.6142 0 50C0 22.3858 22.3858 0 50 0C77.6142 0 100 22.3858 100 50Z" fill="#D9D9D9"/>
<path d="M18.4375 61.6875C18.4375 59.1458 18.4792 56.6042 18.5625 54.0625C18.6875 51.4792 18.8125 48.9167 18.9375 46.375C19.0625 43.7917 19.1458 41.2292 19.1875 38.6875C19.2708 36.1042 19.2708 33.5417 19.1875 31C19.3125 30.5417 19.5417 30.2083 19.875 30C20.2083 29.75 20.6042 29.625 21.0625 29.625C21.9375 29.625 22.6042 29.7917 23.0625 30.125C23.5208 30.4167 23.8542 30.8333 24.0625 31.375C24.2708 31.9167 24.3958 32.5208 24.4375 33.1875C24.4792 33.8542 24.5208 34.5208 24.5625 35.1875C25.0625 36.1042 25.6458 37 26.3125 37.875C27.0208 38.7083 27.6458 39.5625 28.1875 40.4375C28.1875 40.4792 28.2083 40.5833 28.25 40.75C28.3333 40.875 28.3958 40.9375 28.4375 40.9375C28.6875 41.3125 29 41.8125 29.375 42.4375C29.7917 43.0208 30.1875 43.6042 30.5625 44.1875C30.9375 44.7292 31.25 45.2083 31.5 45.625C31.7917 46.0417 31.9375 46.25 31.9375 46.25L32.1875 46.5625L35.8125 51.8125C35.9792 51.9792 36.125 52.0625 36.25 52.0625H36.375C35.8333 47.6458 35.3958 43.1458 35.0625 38.5625C34.7292 33.9375 34.5625 29.375 34.5625 24.875V21.75C34.8958 21.2083 35.4583 20.9375 36.25 20.9375C37.0417 20.9375 37.625 21.125 38 21.5C38.375 21.875 38.625 22.3542 38.75 22.9375C38.875 23.4792 38.9375 24.0833 38.9375 24.75C38.9375 25.375 38.9583 25.9583 39 26.5C39 26.5417 39.0208 26.625 39.0625 26.75C39.1042 26.8333 39.1458 27.0625 39.1875 27.4375C39.2708 27.7708 39.3333 28.3125 39.375 29.0625C39.4583 29.7708 39.5417 30.7708 39.625 32.0625C39.75 33.3542 39.8542 34.9792 39.9375 36.9375C40.0625 38.8958 40.2083 41.2917 40.375 44.125V45.25L42.5 59.1875C42.5417 59.5208 42.7083 60.0417 43 60.75C43.3333 61.4167 43.5 61.9375 43.5 62.3125C43.5 63.1875 43.25 63.8958 42.75 64.4375C42.25 64.9792 41.5417 65.25 40.625 65.25C40.5 65.25 40.3333 65.2083 40.125 65.125C39.9167 65 39.7083 64.875 39.5 64.75C39.2917 64.625 39.0833 64.5 38.875 64.375C38.7083 64.2083 38.5833 64.0833 38.5 64L28.4375 49.6875C28.3958 49.6875 28.3542 49.625 28.3125 49.5C28.2708 49.3333 28.2292 49.2083 28.1875 49.125C27.9375 48.75 27.6042 48.2917 27.1875 47.75C26.7708 47.1667 26.375 46.6042 26 46.0625C25.625 45.4792 25.2917 44.9792 25 44.5625C24.7083 44.1458 24.5625 43.9167 24.5625 43.875L24.25 43.625C24.0417 47.5833 23.875 51.5833 23.75 55.625C23.625 59.625 23.625 63.625 23.75 67.625C23.6667 68.125 23.3958 68.5625 22.9375 68.9375C22.5208 69.3125 22.0833 69.5 21.625 69.5C20.7917 69.5 20.125 69.2917 19.625 68.875C19.1667 68.4167 18.7708 67.8333 18.4375 67.125V61.6875ZM46.4375 59.9375L48.75 43.875C48.8333 43.3333 49.0625 42.9375 49.4375 42.6875C49.8542 42.4375 50.3125 42.3125 50.8125 42.3125C51.7292 42.3125 52.4583 42.5833 53 43.125C53.5417 43.625 54 44.25 54.375 45H54.4375C54.9375 45 55.375 44.9167 55.75 44.75C56.1667 44.5417 56.6667 44.4375 57.25 44.4375C58.5833 44.4375 59.7083 44.8542 60.625 45.6875C61.5833 46.5208 62.3542 47.5417 62.9375 48.75C63.5208 49.9167 63.9375 51.1875 64.1875 52.5625C64.4792 53.9375 64.625 55.1458 64.625 56.1875C64.625 57.4375 64.2917 58.8333 63.625 60.375C63 61.9167 62.1458 63.375 61.0625 64.75C60.0208 66.125 58.8333 67.2708 57.5 68.1875C56.1667 69.1042 54.8125 69.5625 53.4375 69.5625C52.1875 69.5625 51.1042 69.2708 50.1875 68.6875C49.3125 68.1042 48.5833 67.375 48 66.5C47.4583 65.5833 47.0625 64.5625 46.8125 63.4375C46.5625 62.3125 46.4375 61.2083 46.4375 60.125V59.9375ZM51.6875 60.3125C51.7708 60.7292 51.8542 61.2083 51.9375 61.75C52.0208 62.2917 52.1458 62.7917 52.3125 63.25C52.4792 63.6667 52.7083 64 53 64.25C53.3333 64.4583 53.7917 64.4583 54.375 64.25C54.9167 63.75 55.5 63.1875 56.125 62.5625C56.75 61.9375 57.3333 61.2708 57.875 60.5625C58.4583 59.8542 58.9375 59.1042 59.3125 58.3125C59.6875 57.5208 59.875 56.6875 59.875 55.8125C60.0417 54.3958 59.9375 53.1042 59.5625 51.9375C59.1875 50.7292 58.6458 49.875 57.9375 49.375C57.2708 48.8333 56.5 48.7708 55.625 49.1875C54.75 49.5625 53.875 50.625 53 52.375C52.5 53.4583 52.1458 54.7292 51.9375 56.1875C51.7708 57.6042 51.6875 58.9167 51.6875 60.125V60.3125ZM73.375 51.25C72.7917 51.25 72.2708 51.3958 71.8125 51.6875C71.3542 51.9792 70.8125 52.125 70.1875 52.125C70.1042 52.125 69.875 52.125 69.5 52.125C69.1667 52.0833 68.9583 52.0625 68.875 52.0625C68.7083 51.8542 68.5208 51.6875 68.3125 51.5625C68.1042 51.4375 67.8958 51.3125 67.6875 51.1875C67.4792 51.0208 67.2917 50.8333 67.125 50.625C67 50.4167 66.9375 50.125 66.9375 49.75C66.9375 49.125 67.1875 48.625 67.6875 48.25C68.1875 47.8333 68.7708 47.4792 69.4375 47.1875C70.1042 46.8958 70.7708 46.625 71.4375 46.375C72.1458 46.125 72.7083 45.8333 73.125 45.5V42.75C73.125 39.6667 72.9792 36.5833 72.6875 33.5C72.3958 30.375 72.25 27.2917 72.25 24.25C72.25 23.4167 72.4583 22.875 72.875 22.625C73.2917 22.375 73.8542 22.25 74.5625 22.25C75.3958 22.25 76 22.5 76.375 23C76.7917 23.4583 77.0833 24.0417 77.25 24.75C77.4167 25.4167 77.5 26.1458 77.5 26.9375C77.5 27.6875 77.5208 28.3333 77.5625 28.875C77.5625 29.4167 77.6042 30.375 77.6875 31.75C77.7708 33.125 77.8542 34.5833 77.9375 36.125C78.0208 37.6667 78.1042 39.125 78.1875 40.5C78.2708 41.875 78.3333 42.8333 78.375 43.375C78.5417 43.3333 78.8542 43.2292 79.3125 43.0625C79.8125 42.8542 80.3333 42.6667 80.875 42.5C81.4167 42.2917 81.9167 42.1042 82.375 41.9375C82.875 41.7708 83.2292 41.6458 83.4375 41.5625C84.5208 41.1042 85.6458 40.6042 86.8125 40.0625C87.9792 39.4792 89.1667 39.1875 90.375 39.1875C91.2083 39.1875 91.8333 39.4792 92.25 40.0625C92.7083 40.6042 92.9375 41.25 92.9375 42C92.9375 42.5417 92.7292 42.9375 92.3125 43.1875C91.8958 43.4375 91.4583 43.6667 91 43.875L79.625 48.125C79.5 48.2083 79.375 48.2917 79.25 48.375C79.125 48.4167 79 48.5 78.875 48.625V50.625C78.875 52.0833 78.8958 53.6042 78.9375 55.1875C79.0208 56.7292 79.1667 58.2292 79.375 59.6875C79.5833 60.9375 79.8125 62.1667 80.0625 63.375C80.3125 64.5833 80.4375 65.8125 80.4375 67.0625C80.4375 67.4375 80.3125 67.9375 80.0625 68.5625C79.8125 69.1875 79.4167 69.5 78.875 69.5C77.75 69.5 76.8333 69.1667 76.125 68.5C75.4167 67.8333 75.0208 66.9375 74.9375 65.8125C74.7292 63.6458 74.5 61.2708 74.25 58.6875C74.0417 56.1042 73.8333 53.625 73.625 51.25H73.375Z" fill="#060606"/>
</svg>
